<?xml version="1.0" standalone="no"?>
<!DOCTYPE svg PUBLIC "-//W3C//DTD SVG 1.1//EN" "http://www.w3.org/Graphics/SVG/1.1/DTD/svg11.dtd" >
<svg xmlns="http://www.w3.org/2000/svg">
<metadata>Generated by IcoMoon</metadata>
<defs>
<font id="icons" horiz-adv-x="1024">
<font-face units-per-em="1024" ascent="960" descent="-64" />
<missing-glyph horiz-adv-x="1024" />
<glyph unicode="&#x20;" horiz-adv-x="512" d="" />
<glyph unicode="&#xe900;" glyph-name="around" d="M992.47 606.827c-82.954 264.979-365.947 413.061-630.979 330.141-264.997-82.954-413.097-366.015-330.159-630.995l32.564 10.2c-77.326 247.018 60.744 510.907 307.795 588.249 119.68 37.442 246.78 26.048 357.845-32.070 111.116-58.152 192.928-156.064 230.388-275.727 37.442-119.662 26.064-246.746-32.070-357.845-58.118-111.116-156.030-192.928-275.709-230.388-200.314-62.688-419.885 16.478-534.089 192.552l-28.624-18.56c94.4-145.574 255.974-229.398 423.467-229.38 49.81 0 100.182 7.404 149.43 22.858 128.362 40.172 233.39 127.936 295.753 247.104 62.364 119.17 74.56 255.498 34.388 383.861zM413.039 721.184l9.792 32.684-170.582 51.174c-5.97 1.808-12.504 0.17-16.956-4.282l-34.116-34.116c-3.974-3.974-5.732-9.654-4.708-15.182 1.024-5.526 4.708-10.184 9.842-12.47l153.524-68.232 13.852 31.182-130.818 58.152 9.348 9.348 160.822-48.258zM571.493 822.798c0 9.416-7.626 17.058-17.058 17.058-0.018 0-0.018 0-0.034 0-37.528 0-72.822-14.618-99.364-41.162l-144.652-144.636-58.868 14.722c-5.816 1.45-11.958-0.238-16.206-4.486l-34.116-34.116c-3.718-3.718-5.526-8.938-4.878-14.142 0.648-5.202 3.65-9.842 8.154-12.538l81.64-48.99 48.99-81.64c2.696-4.504 7.318-7.506 12.538-8.154 0.682-0.086 1.382-0.12 2.082-0.12 4.486 0 8.836 1.774 12.078 4.98l34.116 34.116c4.23 4.248 5.936 10.388 4.486 16.206l-14.704 58.8 146.956 145.506c25.074 26.254 38.874 60.744 38.84 98.596zM354.769 596.131c-4.282-4.23-6.004-10.406-4.554-16.256l14.722-58.868-11.838-11.838-39.934 66.56c-1.45 2.406-3.446 4.418-5.85 5.85l-66.56 39.934 11.838 11.838 58.868-14.722c5.816-1.45 11.958 0.238 16.206 4.486l151.476 151.476c15.694 15.71 35.446 25.894 56.872 29.596-3.378-21.084-12.982-40.632-27.72-56.070l-153.526-151.986zM536.643 518.397l-51.174 172.798-32.718-9.69 48.086-162.36-10.354-9.144-56.872 131.928-31.336-13.51 66.186-153.524c2.166-5.016 6.602-8.7 11.94-9.894 1.246-0.272 2.49-0.41 3.736-0.41 4.112 0 8.136 1.484 11.276 4.264l36.164 31.898c4.98 4.39 6.942 11.264 5.066 17.644zM333.207 19.43c-121.488-57.57-216.792-65.008-261.415-20.402-77.342 77.342 6.652 302.047 195.366 522.711l-25.928 22.176c-206.982-242.020-286.591-476.005-193.574-569.007 25.98-25.962 62.672-38.91 108.182-38.91 53.050 0 118.076 17.586 191.972 52.608l-14.602 30.824zM910.642 370.299c-2.968 5.544-8.75 9.006-15.046 9.006h-57.69l-46.466 92.916c-2.9 5.782-8.802 9.434-15.268 9.434h-170.582c-9.434 0-17.058-7.642-17.058-17.058v-136.466c0-9.434 7.626-17.058 17.058-17.058h51.174v-187.64c0-9.434 7.624-17.058 17.058-17.058h85.29c4.52 0 8.854 1.792 12.078 5.016l68.232 68.232c3.206 3.19 4.998 7.522 4.998 12.060v63.064l65.366 98.050c3.482 5.22 3.824 11.958 0.856 17.502zM813.154 269.365c-1.86-2.798-2.866-6.106-2.866-9.468v-61.17l-58.236-58.236h-61.188v187.64c0 9.434-7.624 17.058-17.058 17.058h-51.174v102.348h142.982l46.466-92.916c2.9-5.782 8.802-9.434 15.266-9.434h36.368l-50.56-75.822zM922.532 515.771l-63.32 110.81c-3.036 5.322-8.7 8.598-14.806 8.598h-102.348c-5.698 0-11.020-2.848-14.192-7.59l-29.050-43.584h-42.048v85.29h85.29c4.538 0 8.854 1.792 12.060 4.998l63.234 63.234h78.228v34.116h-85.29c-4.538 0-8.854-1.792-12.060-4.998l-63.234-63.234h-95.286c-9.434 0-17.058-7.642-17.058-17.058v-119.406c0-9.416 7.626-17.058 17.058-17.058h68.232c5.698 0 11.020 2.848 14.192 7.59l29.050 43.584h83.33l63.32-110.81c3.036-5.322 8.7-8.598 14.806-8.598h68.232v34.116h-58.34zM503.243 345.189h-95.286l-46.176 46.176c-3.19 3.208-7.54 4.998-12.060 4.998h-85.29c-9.416 0-17.058-7.626-17.058-17.058v-119.406c0-9.434 7.642-17.058 17.058-17.058h68.232v-170.582c0-6.466 3.65-12.368 9.434-15.266 2.406-1.194 5.032-1.792 7.626-1.792 3.616 0 7.216 1.142 10.234 3.412l68.232 51.174c4.298 3.224 6.824 8.29 6.824 13.646v42.986l78.894 63.098c4.042 3.24 6.396 8.136 6.396 13.322v85.29c-0.002 9.434-7.644 17.060-17.060 17.060zM486.185 251.027l-78.894-63.098c-4.042-3.242-6.396-8.136-6.396-13.322v-42.646l-34.116-25.588v153.524c0 9.434-7.642 17.058-17.058 17.058h-68.232v85.29h61.17l46.176-46.176c3.19-3.206 7.54-4.998 12.060-4.998h85.29v-60.044zM159.642 592.787l-51.174 85.29c-3.070 5.134-8.632 8.274-14.618 8.274h-17.058v-34.116h7.404l39.354-65.588-41.758-41.758c-3.208-3.19-4.998-7.54-4.998-12.060v-51.174h-51.178v-34.116h68.232c9.416 0 17.058 7.642 17.058 17.058v61.17l46.176 46.176c5.528 5.544 6.586 14.124 2.56 20.844zM537.377 942.222v-20.81l-55.32-13.834c-1.894-0.478-3.702-1.28-5.322-2.354l-42.936-28.624-93.496 46.756-15.266-30.516 102.348-51.174c2.406-1.194 5.016-1.792 7.626-1.792 3.31 0 6.602 0.972 9.45 2.866l48.718 32.478 65.384 16.342c7.59 1.894 12.93 8.716 12.93 16.546v34.116h-34.116z" />
<glyph unicode="&#xe901;" d="M1007.484 448c0-273.645-221.839-495.484-495.484-495.484s-495.484 221.839-495.484 495.484 221.839 495.484 495.484 495.484 495.484-221.839 495.484-495.484z" />
<glyph unicode="&#xe902;" d="M348.984-19.903c-29.565-17.508-64.242-27.581-101.242-27.581-109.5 0-198.194 88.694-198.194 198.194 0 28.573 5.944 55.661 16.847 80.266 30.718 69.371 100.419 117.927 181.347 117.927 109.5 0 198.194-88.694 198.194-198.194 0-36.169-9.581-70.032-26.427-99.097-17.008-29.395-41.452-54.008-70.524-71.516z" />
<glyph unicode="&#xe903;" d="M82.581 745.29v132.129h676.339c5.944-3.137 11.726-6.774 17.339-10.573v-121.556z" />
<glyph unicode="&#xe904;" d="M247.742 414.968v99.097h693.677v-132.129h-693.677z" />
<glyph unicode="&#xe905;" d="M82.581 745.29v-330.323h165.161v66.065h-99.097v198.194h165.161v-165.161h462.452v231.226z" />
<glyph unicode="&#xe906;" d="M941.419 381.935v-180.855c-33.363-58.468-78.613-109.331-132.129-149.468h-389.782c16.847 29.065 26.427 62.927 26.427 99.097 0 109.5-88.694 198.194-198.194 198.194v33.032z" />
<glyph unicode="&#xe907;" d="M858.839 216.774c0-54.726-44.371-99.097-99.097-99.097s-99.097 44.371-99.097 99.097 44.371 99.097 99.097 99.097 99.097-44.371 99.097-99.097z" />
<glyph unicode="&#xe908;" d="M313.806 613.161v-99.097h-66.065v-33.032h-99.097v198.194h165.161z" />
<glyph unicode="&#xe909;" d="M512 960c-88 0-174.71-22.911-251.177-66.065h-194.758v-194.758c-43.153-76.452-66.065-163.161-66.065-251.177 0-76.040 16.452-149.121 48.589-217.468-9.944-24.71-15.556-51.597-15.556-79.823 0-118.387 96.323-214.71 214.71-214.71 37.274 0 72.339 9.581 102.927 26.363 52.129-17.331 106.315-26.363 161.331-26.363 282.331 0 512 229.694 512 512s-229.669 512-512 512zM990.968 448c0-61.54-11.79-120.339-33.032-174.444v257.024h-165.161v305.105c119.976-87.121 198.194-228.403 198.194-387.685zM99.097 728.774h660.645v-198.194h-429.419v165.161h-198.194v-231.226h99.097v-33.032h-132.129zM231.226 530.581v-33.032h-66.065v165.161h132.129v-132.129zM264.258 497.548h660.645v-99.097h-660.645zM512 926.968c61.54 0 120.339-11.79 174.444-33.032h-348.573c55.298 21.605 114.355 33.032 174.129 33.032zM754.306 860.903c1.798-1.056 3.653-2.048 5.435-3.121v-95.976h-660.645v99.097zM33.032 448c0 59.774 11.427 118.847 33.032 174.145v-223.694h165.161v-33.871c-68.194-5.242-127.54-42.331-163.081-96.54-23.234 57.097-35.113 117.46-35.113 179.96zM66.065 150.71c0 100.169 81.508 181.677 181.677 181.677s181.677-81.508 181.677-181.677-81.508-181.677-181.677-181.677-181.677 81.508-181.677 181.677zM385.532-13.726c16.653 13.976 31.056 30.476 42.847 48.823h325.927c-71.137-41.919-153.927-66.065-242.306-66.065-42.911 0-85.274 5.96-126.468 17.242zM803.242 68.129h-357.355c10.637 25.435 16.565 53.331 16.565 82.581 0 112.823-87.516 205.379-198.194 213.871v0.839h660.645v-159.726c-31.411-53.315-72.823-100.024-121.661-137.565z" />
<glyph unicode="&#xe90a;" d="M198.677 22.573l66.129 264.242 32.032-8.016-66.137-264.242z" />
<glyph unicode="&#xe90b;" d="M326.702 243.613l-25.79-20.645 57.823-72.258-57.823-72.258 25.79-20.645 74.306 92.903z" />
<glyph unicode="&#xe90c;" d="M168.782 243.613l-74.306-92.903 74.306-92.903 25.79 20.645-57.823 72.258 57.823 72.258z" />
<glyph unicode="&#xe90d;" d="M132.129 827.871h33.032v-33.032h-33.032z" />
<glyph unicode="&#xe90e;" d="M198.194 827.871h33.032v-33.032h-33.032z" />
<glyph unicode="&#xe90f;" d="M264.258 827.871h33.032v-33.032h-33.032z" />
<glyph unicode="&#xe910;" d="M297.29 464.516h33.032v-33.032h-33.032z" />
<glyph unicode="&#xe911;" d="M363.355 464.516h33.032v-33.032h-33.032z" />
<glyph unicode="&#xe912;" d="M429.419 464.516h33.032v-33.032h-33.032z" />
<glyph unicode="&#xe913;" d="M363.355 695.742h33.032v-33.032h-33.032z" />
<glyph unicode="&#xe914;" d="M429.419 695.742h297.29v-33.032h-297.29z" />
<glyph unicode="&#xe915;" d="M363.355 629.677h33.032v-33.032h-33.032z" />
<glyph unicode="&#xe916;" d="M429.419 629.677h297.29v-33.032h-297.29z" />
<glyph unicode="&#xe917;" d="M759.742 332.387c-63.734 0-115.613-51.863-115.613-115.613s51.879-115.613 115.613-115.613 115.613 51.863 115.613 115.613-51.879 115.613-115.613 115.613zM759.742 134.194c-45.532 0-82.581 37.048-82.581 82.581s37.048 82.581 82.581 82.581 82.581-37.048 82.581-82.581-37.048-82.581-82.581-82.581z" />
<glyph unicode="&#xe918;" d="M495.484 134.194h115.613v-33.032h-115.613z" />
<glyph unicode="&#xe919;" d="M495.484 200.258h115.613v-33.032h-115.613z" />
<glyph unicode="&#xe91a;" d="M495.484 266.323h115.613v-33.032h-115.613z" />
<glyph unicode="&#xe91b;" d="M429.419 332.387h181.677v-33.032h-181.677z" />
<glyph unicode="&#xe91c;" d="M1024 448c0-164.634-77.72-311.128-198.468-404.794-86.622-67.208-195.396-107.206-313.532-107.206s-226.91 39.998-313.532 107.206c-120.748 93.666-198.468 240.16-198.468 404.794 0 282.77 229.23 512 512 512s512-229.23 512-512z" />
<glyph unicode="&#xe91d;" d="M883.984 721.052l-58.452-677.846c-86.622-67.208-195.396-107.206-313.532-107.206s-226.91 39.998-313.532 107.206l-58.452 677.846h743.968z" />
<glyph unicode="&#xe91e;" d="M511.994 657.324v-707.916l244.544 69.038 54.552 638.878z" />
<glyph unicode="&#xe91f;" d="M728.072 380.426h-176.372l184.298 93.794 7.964 94.288h-463.936l8.118-96.13h186.234l-178.688-89.346 8.314-98.478h318.748l-10.448-117.286-100.31-27.168-104.49 29.258-2.612 73.142h-97.336l12.176-144.196 192.262-54.334 192.26 54.334 23.824 282.138z" />
<glyph unicode="&#xe920;" d="M330.704 825.552v66.874h96.13v36.222h-130.96v-139.318h130.96v36.222z" />
<glyph unicode="&#xe921;" d="M483.084 874.14v16.72h95.61v37.788h-130.962v-86.376h93.866v-16.72h-93.866v-36.222h130.962v84.81z" />
<glyph unicode="&#xe922;" d="M632.504 874.14v16.72h95.608v37.788h-130.96v-86.376h93.866v-16.72h-93.866v-36.222h130.96v84.81z" />
<glyph unicode="&#xe923;" d="M64 960l81.6-921.6 366.4-102.4 366.272 102.336 81.728 921.664z" />
<glyph unicode="&#xe924;" d="M785.536 658.624l-10.304-115.776-31.104-347.072-232.32-64.256-232 64.256-16.192 181.504h113.664l8.448-94.144 126.208-33.984 126.336 34.048 17.216 156.864-397.312-1.088-11.264 107.264 418.112 4.928 8.448 114.816-437.76-1.216-7.36 106.816h567.296z" />
<glyph unicode="&#xe925;" glyph-name="fried" d="M354.575 631.225l-276.7 74.7c-4.442 1.242-9.042 1.85-13.65 1.833-25.767 0.108-47.6-18.942-50.983-44.483s12.742-49.617 37.65-56.217l270.767-73.092c1.042-83.883 57.55-156.925 138.492-178.983l263.7-71.167c48.067-13.033 99.342-6.408 142.517 18.4 43.175 24.817 74.717 65.783 87.658 113.867l6.658 24.75c6.908 25.6-20.017 52.275-84.792 84.033-66.983 31.192-136.675 56.2-208.208 74.717-27.85 7.55-244.242 64.325-313.108 31.642zM59.85 640.067c-9.1 2.483-14.458 11.875-11.975 20.975s11.875 14.467 20.975 11.983l263.625-71.167-4.467-16.475c-1.508-5.558-2.633-11.142-3.625-16.725zM732.742 316.842l-263.683 71.167c-46.4 12.608-84.192 46.275-102.058 90.917 35.442-20.358 72.6-37.567 111.058-51.408 1.925-0.717 3.967-1.083 6.017-1.092 8.25 0 15.317 5.9 16.792 14.017s-3.058 16.125-10.783 19.025c-64.983 24.492-113.675 49.633-133.542 69-0.192 0.192-0.467 0.242-0.667 0.425-0.558 11.617 0.208 23.258 2.283 34.7 39.883-28.875 83.892-51.583 130.525-67.358l7.158-2.667c4.433-1.658 8.85-3.283 13.242-4.867 28.533-10.392 59.183-20.475 91.167-29.658 13.042-3.825 22.75-6.5 27.308-7.733 11.375-3.067 22.667-5.975 33.858-8.717 2.6-0.65 5.125-1.25 7.75-1.858 9.1-2.208 18.125-4.308 27.067-6.3l6.075-1.317c10.108-2.275 20.075-4.342 29.9-6.192 0.7-0.125 1.383-0.275 2.067-0.408 33.417-6.458 64.858-11.183 93.167-13.967l0.892-0.083c5.65-0.542 11.333-1.108 16.708-1.483 3.242-0.242 6.208-0.358 9.317-0.533h0.9c8.533-0.475 16.867-0.8 24.392-0.8 12.467-0.117 24.925 0.808 37.242 2.767-27.342-74.767-107.275-116.25-184.15-95.575zM784.233 452.525c-8.675 1.325-17.483 2.758-26.558 4.383l-4.708 0.817c-11.633 2.133-23.517 4.483-35.675 7.050l-3.017 0.65c-10.842 2.325-21.9 4.85-33.025 7.508l-7.408 1.708c-12.342 3-24.8 6.158-37.342 9.558-12.542 3.392-24.9 6.925-37.1 10.558-2.442 0.725-4.8 1.458-7.2 2.175-10.958 3.308-21.767 6.683-32.292 10.233l-3.058 0.992c-11.742 3.867-23.158 7.817-34.25 11.842l-4.692 1.708c-8.533 3.142-16.817 6.317-24.9 9.508-1.85 0.717-3.725 1.45-5.533 2.183 51.742-7.958 102.983-18.875 153.483-32.683 50.592-13.5 100.367-29.892 149.075-49.1zM926.75 450.017c-12.892-4.95-26.708-7.058-40.492-6.167-75.017 39.083-154.358 69.242-236.392 89.842-81.208 23.667-164.95 37.6-249.45 41.492-12.35 6.183-23.233 14.95-31.917 25.7 18.933 11.692 125.583 10.242 290.275-34.25 164.692-44.5 257.55-97.008 268-116.617zM586.225 427.517c-10.992 3.242-21.758 6.542-32.308 9.883-8.983 2.858-18.583-2.108-21.433-11.092-2.858-8.983 2.108-18.583 11.092-21.433 10.775-3.417 21.783-6.783 33.025-10.108 1.558-0.45 3.183-0.692 4.808-0.7 8.5-0.017 15.717 6.225 16.925 14.642 1.217 8.408-3.95 16.433-12.108 18.808zM684.25 402.158c-10.75 2.408-21.725 4.983-32.833 7.733-9.075 2.083-18.15-3.492-20.383-12.533-2.242-9.033 3.175-18.2 12.175-20.592 11.375-2.817 22.583-5.45 33.625-7.925 1.225-0.267 2.475-0.408 3.733-0.408 8.7 0.017 15.992 6.567 16.933 15.217 0.95 8.642-4.758 16.617-13.25 18.508zM618.083 900.267c0.1-22.983 13.367-43.875 34.133-53.725v-57.208c0-9.425 7.642-17.067 17.067-17.067h68.267c9.425 0 17.067 7.642 17.067 17.067v57.175c25.258 11.917 38.85 39.767 32.708 67.008-6.15 27.242-30.383 46.558-58.308 46.483h-51.2c-32.983 0-59.733-26.742-59.733-59.733zM686.35 806.4v34.133h34.133v-34.133zM754.617 900.267c0-14.142-11.458-25.6-25.6-25.6h-51.2c-14.133 0-25.6 11.458-25.6 25.6s11.467 25.6 25.6 25.6h51.2c14.142 0 25.6-11.458 25.6-25.6zM942.658 739.108c0.45 4.508-0.9 9.008-3.75 12.525l-53.917 66.15c-2.867 3.5-7 5.725-11.5 6.175-4.508 0.525-9.033-0.833-12.508-3.733l-66.133-53.917c-7.317-5.95-8.417-16.7-2.458-24.008l53.908-66.15c2.858-3.508 6.992-5.733 11.492-6.2 0.567-0.033 1.133-0.033 1.7 0 3.933 0 7.742 1.358 10.792 3.842l66.15 53.9c3.5 2.833 5.742 6.933 6.225 11.417zM861.983 710.95l-32.425 39.675 39.667 32.425 32.425-39.692zM618.083 806.4c0 37.7-30.558 68.267-68.267 68.267-37.7 0-68.267-30.567-68.267-68.267s30.567-68.267 68.267-68.267c37.708 0 68.267 30.567 68.267 68.267zM549.817 772.267c-18.85 0-34.133 15.283-34.133 34.133s15.283 34.133 34.133 34.133c18.858 0 34.133-15.283 34.133-34.133s-15.275-34.133-34.133-34.133zM532.75 704h34.133v-34.133h-34.133zM686.35 738.133h34.133v-34.133h-34.133zM686.35 669.867h34.133v-51.2h-34.133zM874.083 652.8h34.133v-34.133h-34.133zM874.083 584.533h34.133v-34.133h-34.133zM343.667 149.1l37.942 68.258 29.833-16.583-37.942-68.258zM312.8-3.341l16.192 5.392-16.175-5.392 16.333-48.983 32.425 10.783-16.333 48.983c-9.808 29.5-6.8 61.767 8.275 88.95l-29.833 16.592c-19.733-35.55-23.683-77.733-10.883-116.325zM762.058-52.325l16.3 48.983c12.833 38.575 8.917 80.767-10.8 116.325l-58.025 104.375c-3.808 6.742-11.667 10.083-19.158 8.133-7.492-1.942-12.733-8.683-12.775-16.425v-93.867c0-3.075-0.142-6.142-0.392-9.217-3.592 13-8.717 25.533-15.258 37.325l-69.6 125.25c-3.775 6.8-11.675 10.183-19.2 8.233-7.525-1.958-12.783-8.75-12.783-16.525v-112.642c-0.058-29.533-9.633-58.258-27.308-81.917-6.317-8.5-11.825-17.575-16.45-27.1-2.133 3.408-4.3 6.825-6.725 10-14.325 19.242-22.108 42.567-22.183 66.558v93.9c-0.008 7.775-5.267 14.558-12.792 16.508-7.525 1.942-15.417-1.442-19.192-8.233l-58.033-104.408c-19.717-35.542-23.65-77.725-10.833-116.292l16.383-48.983c2.325-6.958 8.833-11.65 16.167-11.658h326.467c7.35 0 13.875 4.7 16.192 11.675zM419.208 7.409c-9.775 29.492-6.775 61.733 8.275 88.917l26.050 46.867v-27.992c0.108-31.367 10.275-61.875 29.008-87.042 8.758-11.592 15.025-24.867 18.417-39-0.917-6.292-1.492-12.633-1.708-18.992h-67.567zM533.233-29.866c1.417 27.167 10.858 53.3 27.133 75.092 22.1 29.575 34.067 65.483 34.133 102.4v46.8l37.55-67.692c15.917-28.75 20.95-62.283 14.183-94.442-1.692-8.117 2.692-16.267 10.392-19.333 7.692-3.067 16.483-0.158 20.833 6.892l1.708 2.967c1.025 1.85 2.167 3.633 3.417 5.342 18.767 25.142 28.942 55.667 29.008 87.042v28.008l26.133-46.783c15.067-27.2 18.058-59.458 8.258-88.967l-12.425-37.325zM751.233 200.784l29.842 16.575 22.9-41.217-29.833-16.583zM839.067 112.984l-18.025 32.425-29.833-16.575 18.025-32.425c9.758-17.542 14.583-37.4 13.958-57.458l34.133-1.1c0.825 26.233-5.492 52.2-18.258 75.133zM801.183-41.533l11.383 34.125 32.367-10.8-11.392-34.125zM398.325 250.825l17.067 34.133 30.525-15.267-17.058-34.133zM988.858 691.933c25.533 25.633 29.5 65.692 9.492 95.833l-7.358 11.025-28.4-18.917 7.358-11.058c11.008-16.592 8.825-38.642-5.225-52.75z" />
<glyph unicode="&#xe926;" d="M1024 448c0-164.634-77.72-311.128-198.468-404.794-86.622-67.208-195.396-107.206-313.532-107.206-117.070 0-224.946 39.288-311.192 105.41-122.086 93.56-200.808 240.89-200.808 406.59 0 282.77 229.23 512 512 512s512-229.23 512-512z" />
<glyph unicode="&#xe927;" d="M883.984 721.052l-58.452-677.846c-86.622-67.208-195.396-107.206-313.532-107.206-117.070 0-224.946 39.288-311.192 105.41l-58.598 679.642h741.774z" />
<glyph unicode="&#xe928;" d="M513.092 657.502v-705.836l243.828 68.834 54.39 637.002z" />
<glyph unicode="&#xe929;" d="M281.806 568.944l23.91-283.126h317.806l-10.398-116.954-100.026-27.088-104.178 29.184-2.616 72.918h-97.042l12.148-143.76 191.688-54.174 191.686 54.174 23.756 281.292h-334.684l-8.306 91.678-0.002 0.004 350.904 1.838 7.936 94.014z" />
<glyph unicode="&#xe92a;" d="M302.318 926.408v-48.642h-46.476v48.642h-43.236v-139.434h43.236v45.396h46.476v-45.396h43.236v139.434z" />
<glyph unicode="&#xe92b;" d="M499.042 926.408h-132.952v-48.642h43.236v-91.876h46.48v91.876h43.236z" />
<glyph unicode="&#xe92c;" d="M746.568 830.21v95.116h-46.48v-139.436h113.492v44.32z" />
<glyph unicode="&#xe92d;" d="M629.828 925.326l-32.424-49.72-32.428 49.72h-46.478v-139.436h46.478v69.18l32.428-49.724 32.424 49.724v-69.18h46.48v139.436z" />
<glyph unicode="&#xe92e;" d="M64 960l81.6-921.6 366.4-102.4 366.272 102.336 81.728 921.664z" />
<glyph unicode="&#xe92f;" d="M783.040 658.624h-429.44l10.24-115.776h408.96l-30.784-347.136-230.208-64.256-229.888 64.256-16.064 181.568h112.64l8.384-94.208 125.12-33.92 125.12 33.984 13.056 146.624h-388.928l-30.336 341.824h562.112z" />
<glyph unicode="&#xe930;" glyph-name="reading" d="M825.432 283.646v106.6l-44.986-17.503-0.132 0.297-1.072 1.947c-17.239 26.84-45.118 45.514-76.51 51.205l-108.25 19.697v8.545c40.482 23.507 70.126 63.61 79.364 111.021 29.991 6.203 52.607 32.811 52.607 64.617v162.935c0 46.042-30.155 86.194-73.904 99.259l-8.248 8.248c-38.371 38.371-89.378 59.486-143.635 59.486-111.994 0-203.121-91.11-203.121-203.121v-126.808c0-31.805 22.617-58.414 52.607-64.617 9.255-47.411 38.882-87.53 79.364-111.021v-8.545l-108.233-19.68c-31.36-5.691-59.222-24.332-76.477-51.155l-0.99-2.408-45.25 17.602v-106.6c-27.285 0-49.489-22.204-49.489-49.489v-65.986c0-27.285 22.204-49.489 49.489-49.489v-60.773l313.432-121.909 313.432 121.909v60.773c27.285 0 49.489 22.204 49.489 49.489v65.986c0 27.285-22.204 49.489-49.489 49.489zM625.397 406.726l71.43-12.983c21.033-3.827 39.657-15.969 52.079-33.257l-159.603-62.060 36.094 108.299zM463.913 439.306c15.226-4.652 31.36-7.192 48.087-7.192s32.861 2.54 48.087 7.192l-48.087-36.061-48.087 36.061zM486.892 380.843l-33.669-33.653-21.841 65.507 10.508 1.897 45.002-33.752zM582.11 414.578l10.508-1.897-21.841-65.507-33.669 33.653 45.002 33.752zM676.964 601.664v56.814c9.815-5.724 16.496-16.249 16.496-28.407s-6.681-22.683-16.496-28.407zM347.036 601.664c-9.815 5.724-16.496 16.249-16.496 28.407s6.681 22.683 16.496 28.407v-56.814zM347.036 712.553v-18.839c-5.873-1.534-11.383-3.844-16.496-6.83v69.994c0 93.799 76.313 170.128 170.128 170.128 45.431 0 88.173-17.701 120.309-49.836l14.55-14.566 4.438-1.089c31.508-7.869 53.498-36.045 53.498-68.51v-106.122c-5.114 2.986-10.624 5.312-16.496 6.83v18.839h-52.31c-44.705 0-87.431 21.346-114.238 57.094l-13.115 17.519-32.778-32.795c-26.988-26.972-62.851-41.818-100.991-41.818h-16.496zM380.028 597.078v83.241c40.73 3.778 78.523 21.445 107.821 50.727l6.417 6.417c33.075-36.507 80.717-57.903 130.388-57.903h19.317v-82.482c0-72.766-59.206-131.972-131.972-131.972s-131.972 59.206-131.972 131.972zM327.174 393.743l71.43 12.983 36.094-108.299-159.636 62.076c12.422 17.305 31.079 29.413 52.112 33.24zM182.071 168.171v65.986c0 9.106 7.407 16.496 16.496 16.496 27.285 0 49.489-22.204 49.489-49.489s-22.204-49.489-49.489-49.489c-9.090 0-16.496 7.39-16.496 16.496zM495.504-22.165l-263.943 102.624v45.217c29.083 12.768 49.489 41.752 49.489 75.488s-20.406 62.719-49.489 75.488v65.359l263.943-102.641v-261.535zM446.526 293.808l65.474 65.491 65.474-65.474-65.474-25.471-65.474 25.454zM792.439 80.476l-263.943-102.624v261.518l263.943 102.641v-65.359c-29.083-12.768-49.489-41.752-49.489-75.488s20.406-62.719 49.489-75.488v-45.2zM841.929 168.171c0-9.106-7.407-16.496-16.496-16.496-27.285 0-49.489 22.204-49.489 49.489s22.204 49.489 49.489 49.489c9.090 0 16.496-7.39 16.496-16.496v-65.986z" />
<glyph unicode="&#xe931;" glyph-name="shopping-bag" d="M688 768h-64v48c0 61.856-50.144 112-112 112s-112-50.144-112-112v0-48h-64c-8.837 0-16-7.163-16-16v0-352c0.082-26.477 21.523-47.918 47.992-48h208.008v32h-208c-8.837 0-16 7.163-16 16v0 16h224v32h-224v288h48v-48h32v48h160v-48h32v48h48v-48h32v64c0 8.837-7.163 16-16 16v0zM592 768h-160v48c0 44.183 35.817 80 80 80s80-35.817 80-80v0zM912 656h-288c-8.837 0-16-7.163-16-16v0-240c0.082-26.477 21.523-47.918 47.992-48h224.008c26.477 0.082 47.918 21.523 48 47.992v240.008c0 8.837-7.163 16-16 16v0zM896 400c0-8.837-7.163-16-16-16v0h-224c-8.837 0-16 7.163-16 16v0 16h256zM896 448h-256v176h256zM768 480c44.161 0.055 79.945 35.839 80 79.995v32.005h-32v-32c0-26.51-21.49-48-48-48s-48 21.49-48 48v0 32h-32v-32c0.055-44.161 35.839-79.945 79.995-80h0.005zM997.312 247.2c-10.846 22.27-33.309 37.344-59.294 37.344-8.458 0-16.543-1.597-23.969-4.506l0.447 0.154-142.88-52c-6.282 24.312-25.894 42.773-50.391 47.284l-0.393 0.060-193.008 34.032c-12.52 2.313-26.926 3.636-41.641 3.636-29.466 0-57.694-5.304-83.78-15.009l1.661 0.541-24.864-9.136c-25.042-9.289-46.709-21.052-66.37-35.399l0.77 0.535-3.536 9.712c-2.293 6.21-8.162 10.557-15.046 10.557-1.955 0-3.829-0.351-5.561-0.993l0.111 0.036-180.432-65.6c-6.21-2.293-10.557-8.162-10.557-15.046 0-1.955 0.351-3.829 0.993-5.561l-0.036 0.111-75.2-27.36 10.944-30.064 75.2 27.36 65.264-179.328 30.064 10.944-70.656 194.336 150.4 54.72 82.096-225.6-38.4-14 10.944-30.048 53.408 19.52c6.212 2.292 10.562 8.162 10.562 15.048 0 1.961-0.353 3.839-0.998 5.575l0.036-0.111-5.472 15.040 36.8 13.408c17.872 6.738 38.531 10.638 60.101 10.638 4.317 0 8.597-0.156 12.835-0.463l-0.568 0.033 75.904-5.264c4.41-0.337 9.551-0.529 14.736-0.529 25.408 0 49.738 4.612 72.2 13.044l-1.417-0.466 292.48 106.448c24.786 9.201 42.128 32.649 42.128 60.147 0 9.511-2.075 18.538-5.796 26.652l0.164-0.399zM967.904 207.472c-3.607-7.695-9.982-13.592-17.812-16.489l-0.22-0.071-292.48-106.464c-17.825-6.736-38.432-10.635-59.95-10.635-4.37 0-8.702 0.161-12.991 0.477l0.573-0.034-75.904 5.264c-4.325 0.321-9.369 0.505-14.456 0.505-25.497 0-49.919-4.602-72.48-13.021l1.432 0.468-36.896-13.424-61.68 169.472c18.664 14.683 40.209 26.881 63.47 35.557l1.65 0.539 24.832 9.040c21.172 7.945 45.641 12.544 71.184 12.544 12.756 0 25.244-1.147 37.366-3.343l-1.27 0.191 192.928-34.032c15.321-2.566 26.853-15.728 26.853-31.583 0-17.673-14.327-32-32-32-2.107 0-4.166 0.204-6.159 0.592l0.202-0.033-173.328 30.56-5.568-31.52 173.328-30.56c3.339-0.62 7.18-0.975 11.104-0.975 28.618 0 52.829 18.868 60.872 44.844l0.12 0.451 154.752 56.336c3.687 1.488 7.962 2.351 12.439 2.351 13.074 0 24.428-7.362 30.144-18.166l0.089-0.185c1.781-3.871 2.82-8.399 2.82-13.17 0-4.893-1.093-9.531-3.047-13.682l0.083 0.196z" />
<glyph unicode="&#xe932;" glyph-name="thesis" d="M995.196 649.546l-251.97 59.276v251.177h-644.129c-54.652 0-99.097-44.445-99.097-99.097v-825.806c0-54.652 44.445-99.097 99.097-99.097h644.129v33.032c-36.435 0-66.065 29.63-66.065 66.065s29.63 66.065 66.065 66.065v218.327l198.194 49.548v195.089l53.777 12.651c16.962 4.013 28.804 18.961 28.804 36.385s-11.842 32.372-28.804 36.385zM33.032 860.903c0 30.703 21.124 56.337 49.548 63.719v-791.915c-18.861-3.188-35.89-11.693-49.548-23.948v752.145zM669.415-30.968h-570.318c-36.435 0-66.065 29.63-66.065 66.065s29.63 66.065 66.065 66.065h570.318c-15.707-17.54-25.286-40.712-25.286-66.065s9.579-48.524 25.286-66.065zM710.194 134.194h-594.581v792.774h594.581v-218.145l-66.065-15.542v167.622h-462.452v-297.29h247.742v-33.032h-247.742v-33.032h247.742v-36.071c-19.175-6.838-33.032-25.005-33.032-46.509v-115.613h99.097v115.613c0 21.504-13.857 39.672-33.032 46.509v114.308l49.548-11.66v-195.089l198.194-49.548v-185.294zM458.223 649.563c-16.962-4.030-28.804-18.977-28.804-36.402v-16.516h-214.71v231.226h396.387v-142.353l-152.873-35.956zM462.452 414.968v-82.581h-33.032v82.581c0 9.117 7.399 16.516 16.516 16.516s16.516-7.399 16.516-16.516zM908.387 460.883l-36.583-9.15 7.994-32.025 28.589 7.151v-32.008l-181.677-45.419-181.677 45.419v32.008l181.677-45.436 119.891 29.977-7.994 32.025-111.897-27.945-181.677 45.403v95.463l181.677-42.744 181.677 42.744v-95.463zM987.615 608.933l-260.905-61.39-260.905 61.39c-1.965 0.462-3.353 2.197-3.353 4.228s1.387 3.766 3.353 4.228l260.905 61.39 260.905-61.39c1.965-0.462 3.353-2.197 3.353-4.228s-1.387-3.766-3.353-4.228zM181.677 448h181.677v-33.032h-181.677v33.032zM181.677 381.935h181.677v-33.032h-181.677v33.032zM181.677 315.871h181.677v-33.032h-181.677v33.032zM181.608 248.689l247.744 1.214 0.162-33.032-247.744-1.214-0.162 33.032zM462.355 248.719l181.682 1.108 0.201-33.032-181.682-1.108-0.201 33.032zM82.581 51.613h462.452v-33.032h-462.452v33.032zM578.065 51.613h33.032v-33.032h-33.032v33.032z" />
<glyph unicode="&#xe933;" glyph-name="phone1" d="M574.925 397.875c-81.050-80.998-174.95-158.515-212.070-121.395-53.094 53.094-85.862 99.379-203.008 5.222-117.094-94.106-27.136-156.877 24.32-208.282 59.392-59.392 280.781-3.174 499.61 215.603 218.778 218.829 274.842 440.218 215.398 499.61-51.456 51.507-113.92 141.414-208.026 24.32-94.157-117.094-47.923-149.862 5.274-203.008 36.966-37.12-40.499-131.021-121.498-212.070z" />
<glyph unicode="&#xe934;" glyph-name="chevron-down" d="M231.219 586.342c22.323 22.835 53.402 24.627 80.691 0l200.090-191.846 200.090 191.846c27.29 24.627 58.419 22.835 80.589 0 22.323-22.784 20.89-61.286 0-82.688-20.787-21.402-240.384-230.502-240.384-230.502-11.11-11.418-25.702-17.152-40.294-17.152s-29.184 5.734-40.397 17.152c0 0-219.494 209.101-240.384 230.502-20.941 21.402-22.323 59.904 0 82.688z" />
<glyph unicode="&#xe935;" glyph-name="mail-envelope-closed" d="M170.080 663.235l247.52-215.235-247.581-215.287c-6.206 5.878-10.019 14.235-10.019 23.507v383.562c0 9.253 3.874 17.582 10.080 23.454zM885.981 663.287c6.206-5.878 10.019-14.235 10.019-23.507v-383.562c0-9.252-3.874-17.582-10.080-23.454l-247.52 215.235 247.581 215.287zM614.459 427.181l233.541-203.181h-640l233.541 203.181 86.459-75.181 86.459 75.181zM192.115 704c-35.41 0-64.115-28.624-64.115-63.81v-384.38c0-35.241 28.472-63.81 64.115-63.81h671.77c35.41 0 64.115 28.624 64.115 63.81v384.38c0 35.241-28.472 63.81-64.115 63.81h-671.77zM528 393.6l-320 278.4h640l-320-278.4z" />
<glyph unicode="&#xe936;" glyph-name="social-linkedin" d="M341.333 128h-128v426.667h128v-426.667zM810.667 128h-128v227.925c0 59.392-21.163 88.96-63.104 88.96-33.237 0-54.315-16.555-64.896-49.707 0-53.845 0-267.179 0-267.179h-128c0 0 1.707 384 0 426.667h101.035l7.808-85.333h2.645c26.24 42.667 68.181 71.595 125.696 71.595 43.733 0 79.104-12.16 106.112-42.709 27.179-30.592 40.704-71.637 40.704-129.28v-240.939zM343.467 661.334c0-35.346-29.609-64-66.133-64s-66.133 28.654-66.133 64c0 35.346 29.609 64 66.133 64s66.133-28.654 66.133-64z" />
<glyph unicode="&#xe937;" glyph-name="social-github" d="M615.893 385.152c11.477 0 20.992-5.675 29.269-16.896 8.192-11.307 12.544-25.088 12.544-41.6 0-16.427-4.352-30.336-12.544-41.515-8.235-11.307-17.792-16.896-29.269-16.896-11.861 0-22.272 5.589-30.507 16.896-8.192 11.179-12.544 25.088-12.544 41.515 0 16.512 4.352 30.293 12.544 41.6 8.192 11.264 18.603 16.896 30.507 16.896zM762.667 537.003c31.829-34.603 48-76.587 48-125.995 0-31.915-3.669-60.715-11.051-86.315-7.467-25.472-16.811-46.251-27.904-62.251-11.264-16.043-25.088-30.080-41.557-42.197-16.469-12.203-31.616-20.992-45.44-26.581-13.867-5.632-29.653-9.941-47.403-13.056-17.792-3.029-30.976-4.736-40.235-5.248-9.088-0.384-18.688-0.597-29.227-0.597-2.347 0-10.368-0.171-23.339-0.64-12.843-0.555-23.893-0.683-32.512-0.683s-19.669 0.128-32.512 0.683c-12.971 0.469-20.992 0.64-23.339 0.64-10.496 0-20.139 0.213-29.227 0.597-9.301 0.512-22.443 2.219-40.235 5.248-18.048 3.072-33.536 7.424-47.403 13.056-13.824 5.589-29.013 14.379-45.397 26.581-16.512 12.117-30.336 26.155-41.6 42.197-11.136 16-20.437 36.779-27.904 62.251-7.381 25.6-11.051 54.4-11.051 86.315 0 49.408 16.171 91.435 48 125.995-3.499 1.749-3.627 19.072-0.341 51.925 2.688 32.896 9.685 63.232 21.12 90.965 39.851-4.224 89.173-26.837 148.096-67.456 19.883 5.077 46.976 7.808 81.792 7.808 36.352 0 63.616-2.731 81.835-7.851 26.837 18.133 52.48 32.896 77.013 44.117 24.917 11.136 42.88 17.749 54.144 19.499l16.896 3.84c11.52-27.691 18.517-58.027 21.163-90.965 3.243-32.811 3.115-50.133-0.384-51.883zM513.28 203.35c72.021 0 126.037 8.619 163.029 25.899 36.48 17.237 55.125 52.821 55.125 106.496 0 31.147-11.648 57.173-35.072 77.995-11.861 11.221-26.155 18.133-42.197 20.736-16 2.603-40.491 2.603-73.387 0-32.811-2.645-55.381-3.84-67.499-3.84-16.427 0-34.133 0.768-56.277 2.517-22.187 1.707-39.595 2.773-52.181 3.328-12.544 0.384-25.984-1.152-40.875-4.608-14.72-3.499-26.837-9.557-36.395-18.133-22.229-20.011-33.707-45.952-33.707-77.995 0-53.675 18.176-89.259 54.613-106.496 36.267-17.28 90.155-25.899 162.219-25.899h2.603zM409.429 385.152c11.435 0 20.992-5.675 29.227-16.896 8.192-11.307 12.544-25.088 12.544-41.6 0-16.427-4.352-30.336-12.544-41.515-8.192-11.307-17.792-16.896-29.227-16.896-11.904 0-22.272 5.589-30.549 16.896-8.192 11.179-12.544 25.088-12.544 41.515 0 16.512 4.352 30.293 12.544 41.6 8.235 11.264 18.603 16.896 30.549 16.896z" />
<glyph unicode="&#xe938;" glyph-name="social-facebook" d="M554.667 512h128v-128h-128v-298.667h-128v298.667h-128v128h128v53.547c0 50.731 15.957 114.816 47.701 149.845 31.744 35.115 71.381 52.608 118.869 52.608h89.429v-128h-89.6c-21.248 0-38.4-17.152-38.4-38.357v-89.643z" />
<glyph unicode="&#xe939;" glyph-name="clear" d="M810 664.667l-238-238 238-238-60-60-238 238-238-238-60 60 238 238-238 238 60 60 238-238 238 238z" />
<glyph unicode="&#xe93a;" glyph-name="menu" d="M128 682.667h768v-86h-768v86zM128 384.667v84h768v-84h-768zM128 170.667v86h768v-86h-768z" />
<glyph unicode="&#xe93b;" glyph-name="add" d="M810 384.667h-256v-256h-84v256h-256v84h256v256h84v-256h256v-84z" />
<glyph unicode="&#xe93c;" glyph-name="phone" d="M981.333 216.747c0.683 30.464-10.069 59.904-28.715 82.901-19.627 24.149-48.171 41.259-82.133 46.080-34.133 4.181-72.32 13.397-110.336 27.563-18.475 6.784-38.101 9.301-57.344 7.424-28.288-2.731-55.765-14.891-77.611-36.48l-30.72-30.72c-75.52 47.659-143.36 113.792-195.541 195.797l30.976 30.976c13.739 14.080 24.021 30.976 30.165 49.323 9.045 26.965 9.131 57.003-1.664 85.803-12.331 32.128-22.101 70.144-27.477 110.72-4.437 30.464-19.456 57.387-41.088 76.971-22.997 20.736-53.589 33.237-86.485 32.896h-127.829c-3.755 0-7.765-0.171-11.648-0.512-35.157-3.2-65.792-20.395-86.741-45.483s-32.341-58.325-29.141-93.824c12.8-131.243 58.24-266.368 137.216-388.352 64.085-102.955 155.648-197.248 268.715-269.056 109.568-72.405 242.517-122.112 387.669-137.856 3.925-0.384 8.149-0.555 12.288-0.555 35.328 0.128 67.328 14.635 90.368 37.845s37.248 55.339 37.12 90.496zM896 216.747v-128c0.043-11.947-4.651-22.613-12.373-30.379s-18.304-12.587-30.123-12.629c-134.357 14.336-254.336 59.349-352.555 124.245-103.595 65.835-185.984 150.912-243.285 242.944-72.405 111.787-113.28 233.856-124.757 351.488-1.024 11.435 2.731 22.443 9.771 30.891s17.195 14.080 28.928 15.147l131.755 0.213c11.563 0.128 21.632-4.011 29.312-10.923 7.253-6.571 12.288-15.616 13.781-25.941 6.059-45.739 17.408-90.325 32.299-129.067 3.456-9.216 3.413-19.072 0.427-28.075-2.091-6.187-5.589-11.989-10.325-16.853l-53.845-53.803c-13.824-13.824-16.171-34.731-6.912-51.243 67.584-118.827 163.797-211.499 272.256-272.128 16.939-9.472 37.632-6.144 50.987 7.083l54.187 54.187c7.083 6.997 16.085 10.965 25.515 11.904 6.485 0.64 13.227-0.213 19.584-2.56 43.605-16.256 88.32-27.136 129.451-32.171 10.283-1.451 19.712-7.083 26.24-15.147 6.272-7.723 9.856-17.579 9.643-29.099z" />
<glyph unicode="&#xe93d;" glyph-name="instagram" d="M298.667 896c-70.699 0-134.741-28.715-181.035-74.965s-74.965-110.336-74.965-181.035v-426.667c0-70.699 28.715-134.741 74.965-181.035s110.336-74.965 181.035-74.965h426.667c70.699 0 134.741 28.715 181.035 74.965s74.965 110.336 74.965 181.035v426.667c0 70.699-28.715 134.741-74.965 181.035s-110.336 74.965-181.035 74.965zM298.667 810.667h426.667c47.147 0 89.728-19.072 120.661-50.005s50.005-73.515 50.005-120.661v-426.667c0-47.147-19.072-89.728-50.005-120.661s-73.515-50.005-120.661-50.005h-426.667c-47.147 0-89.728 19.072-120.661 50.005s-50.005 73.515-50.005 120.661v426.667c0 47.147 19.072 89.728 50.005 120.661s73.515 50.005 120.661 50.005zM724.864 459.819c-6.4 41.472-24.363 79.232-50.944 109.525-32.171 36.736-76.971 62.507-128.384 70.144-19.797 3.157-41.387 3.285-63.019 0.085-58.283-8.619-107.563-40.149-140.032-83.925s-48.341-100.139-39.68-158.379 40.149-107.563 83.925-140.032 100.139-48.341 158.379-39.68 107.563 40.149 140.032 83.925 48.341 100.139 39.68 158.379zM640.469 447.275c5.205-34.987-4.267-68.651-23.808-95.019s-49.067-45.184-84.011-50.347-68.651 4.267-95.019 23.808-45.184 49.067-50.347 84.011 4.267 68.651 23.808 95.019 49.067 45.184 84.011 50.347c13.355 1.963 26.24 1.792 37.12 0.085 31.573-4.693 58.283-20.053 77.568-42.069 16-18.261 26.88-41.088 30.72-65.835zM746.667 618.667c23.552 0 42.667 19.115 42.667 42.667s-19.115 42.667-42.667 42.667-42.667-19.115-42.667-42.667 19.115-42.667 42.667-42.667z" />
<glyph unicode="&#xe93e;" glyph-name="arrow-right" d="M828.006 512l-310.835 310.835 72.397 72.397 434.432-434.432-434.432-434.432-72.397 72.397 310.835 310.835h-828.006v102.4z" />
<glyph unicode="&#xe93f;" glyph-name="map-pin" d="M938.667 512c0 117.803-47.787 224.555-124.971 301.696s-183.893 124.971-301.696 124.971-224.555-47.787-301.696-124.971-124.971-183.893-124.971-301.696c0-24.277 2.261-48.128 6.4-71.509 11.691-66.048 38.357-128.171 71.765-184.32 116.565-195.883 324.821-334.336 324.821-334.336 14.123-9.259 32.64-9.771 47.317 0 0 0 208.299 138.453 324.821 334.336 33.408 56.149 60.075 118.272 71.765 184.32 4.181 23.381 6.443 47.232 6.443 71.509zM853.333 512c0-18.944-1.749-37.845-5.077-56.661-9.429-53.333-31.445-105.728-61.099-155.563-81.579-137.131-214.869-245.205-271.744-287.573-59.648 39.083-195.755 148.352-278.613 287.573-29.653 49.835-51.669 102.229-61.099 155.563-3.285 18.816-5.035 37.717-5.035 56.661 0 94.251 38.144 179.541 99.968 241.365s147.115 99.968 241.365 99.968 179.541-38.144 241.365-99.968 99.968-147.115 99.968-241.365zM682.667 512c0 47.104-19.157 89.856-50.005 120.661s-73.557 50.005-120.661 50.005-89.856-19.157-120.661-50.005-50.005-73.557-50.005-120.661 19.157-89.856 50.005-120.661 73.557-50.005 120.661-50.005 89.856 19.157 120.661 50.005 50.005 73.557 50.005 120.661zM597.333 512c0-23.595-9.515-44.843-25.003-60.331s-36.736-25.003-60.331-25.003-44.843 9.515-60.331 25.003-25.003 36.736-25.003 60.331 9.515 44.843 25.003 60.331 36.736 25.003 60.331 25.003 44.843-9.515 60.331-25.003 25.003-36.736 25.003-60.331z" />
</font>
</defs>
</svg>
